<svg width="27" height="26" viewBox="0 0 27 26" fill="none" xmlns="http://www.w3.org/2000/svg">
<g clip-path="url(#clip0_1_4953)">
<path d="M10.026 19.0007C16.064 19.0007 19.367 13.9977 19.367 9.66669C19.367 9.52669 19.367 9.38469 19.361 9.24469C20.0041 8.77918 20.5591 8.20284 21 7.54269C20.3993 7.80754 19.7628 7.9821 19.111 8.06069C19.7975 7.65033 20.3117 7.00466 20.558 6.24369C19.913 6.62582 19.207 6.89407 18.471 7.03669C17.9762 6.50972 17.3214 6.16061 16.6081 6.04345C15.8948 5.92629 15.1627 6.04761 14.5253 6.38863C13.888 6.72965 13.3808 7.27132 13.0824 7.92975C12.7841 8.58818 12.7112 9.32663 12.875 10.0307C11.5697 9.96524 10.2928 9.62616 9.12704 9.03544C7.96127 8.44471 6.93268 7.61554 6.108 6.60169C5.68934 7.32478 5.56157 8.18009 5.75065 8.99396C5.93972 9.80782 6.43145 10.5192 7.126 10.9837C6.60554 10.966 6.09652 10.8263 5.64 10.5757V10.6207C5.6409 11.3782 5.90331 12.1121 6.38287 12.6985C6.86244 13.2848 7.52975 13.6876 8.272 13.8387C7.99026 13.9163 7.69923 13.955 7.407 13.9537C7.20098 13.9543 6.99538 13.9352 6.793 13.8967C7.00279 14.5487 7.41127 15.1189 7.96125 15.5272C8.51122 15.9355 9.17513 16.1615 9.86 16.1737C8.69656 17.0875 7.2594 17.5831 5.78 17.5807C5.51932 17.5818 5.25882 17.5668 5 17.5357C6.50151 18.493 8.2453 19.0012 10.026 19.0007Z" fill="white"/>
</g>
<defs>
<clipPath id="clip0_1_4953">
<rect width="16" height="16" fill="white" transform="translate(5.5 5)"/>
</clipPath>
</defs>
</svg>
